<?xml version="1.0" encoding="utf-8"?>
<!-- Generator: Adobe Illustrator 16.0.0, SVG Export Plug-In . SVG Version: 6.00 Build 0)  -->
<!DOCTYPE svg PUBLIC "-//W3C//DTD SVG 1.1//EN" "http://www.w3.org/Graphics/SVG/1.1/DTD/svg11.dtd">
<svg version="1.1" id="Layer_1" xmlns="http://www.w3.org/2000/svg" xmlns:xlink="http://www.w3.org/1999/xlink" x="0px" y="0px"
	 width="1316px" height="800px" viewBox="0 0 1316 800" enable-background="new 0 0 1316 800" xml:space="preserve">
<g>
	<path fill="#AEAEAF" d="M612.843,301.774c-0.299,0-0.451-0.15-0.451-0.452v-5.576c0-0.302,0.152-0.455,0.451-0.455h138.972
		c0.322,0,0.482,0.153,0.482,0.455v5.576c0,0.302-0.16,0.452-0.482,0.452H612.843z"/>
	<rect x="638.075" y="272.265" fill="#FFFFFF" width="102.7" height="38.938"/>
	<path fill="#AEAEAF" d="M505.24,304.71l-1.201-6.375c-0.335-1.69-1.155-6.322-2.455-13.899l-2.11-12.702l-0.079-1.04
		c0-1.563,0.582-2.886,1.734-3.961c1.158-1.076,2.536-1.613,4.137-1.613c0.674,2.454,1.406,4.694,2.189,6.724l-1.735,1.306
		l0.667,7.683l1.361,13.046v0.055c1.458,0.904,3.031,1.357,4.721,1.357c0.321,0,0.48,0.153,0.48,0.455v5.579
		c0,0.3-0.159,0.45-0.48,0.45c-0.692,0-1.378-0.083-2.057-0.251c-0.675-0.168-1.396-0.468-2.158-0.894l0.025,2.027
		c0,2.436-0.723,4.694-2.174,6.775c-1.448,2.084-3.421,3.705-5.906,4.868c-2.494,1.168-5.225,1.75-8.194,1.75
		c-3.273,0-5.762-0.96-7.47-2.879c-1.707-1.921-2.561-4.708-2.561-8.352c0-1.832,0.452-4.466,1.363-7.897l2.401,0.585
		c-0.503,1.656-0.749,3.106-0.749,4.348c0,2.599,0.585,4.533,1.764,5.806c1.169,1.269,2.964,1.904,5.386,1.904
		c2.846,0,5.257-0.363,7.243-1.092C501.365,307.744,503.321,306.489,505.24,304.71"/>
	<path fill="#AEAEAF" d="M512.018,301.774c-0.305,0-0.457-0.15-0.457-0.452v-5.576c0-0.302,0.151-0.455,0.457-0.455h8.163
		c0.32,0,0.479,0.153,0.479,0.455v5.576c0,0.302-0.159,0.452-0.479,0.452H512.018z"/>
	<path fill="#AEAEAF" d="M549.862,301.19c0,0.392-0.205,0.584-0.611,0.584c-1.831,0-9.939-0.7-11.384-2.104l-0.744,2.587
		c-2.33,0-4.497-0.209-6.494-0.627c-2.001-0.419-3.636-0.975-4.898-1.668c-1.015,0.677-1.976,1.147-2.882,1.414
		c-0.906,0.268-1.894,0.398-2.961,0.398c-0.303,0-0.454-0.15-0.454-0.45v-5.579c0-0.302,0.151-0.455,0.454-0.455
		c0.819,0,1.645-0.087,2.481-0.265l0.376-0.078c0.139-2.014,0.766-4.029,1.863-6.057c1.106-2.029,2.423-3.639,3.961-4.832
		c1.542-1.19,3.102-1.786,4.686-1.786c0.747,0,1.44,0.475,2.081,1.427c0.639,0.954,1.397,2.646,2.269,5.082
		c0.78,2.243,1.588,3.888,2.411,4.938c0.832,1.048,8.223,1.571,9.236,1.571c0.406,0,0.611,0.18,0.611,0.536V301.19z M533.12,288.064
		c-3.201,1.226-5.619,2.88-7.254,4.962c1.938,1.581,5.014,2.616,9.231,3.093l0.321,0.053
		C534.224,293.789,533.462,291.087,533.12,288.064"/>
	<path fill="#AEAEAF" d="M548.929,301.774c-0.302,0-0.453-0.15-0.453-0.452v-5.576c0-0.302,0.15-0.455,0.453-0.455h4.243
		c-0.766-1.083-1.148-2.203-1.148-3.36c0-1.688,0.486-3.514,1.455-5.468c0.967-1.957,2.147-3.482,3.535-4.576
		c1.383-1.095,2.782-1.642,4.188-1.642c2.524,0,5.291,1.682,8.3,5.043l-1.148,2.214c-2.262-0.853-4.181-1.28-5.766-1.28
		c-1.281,0-2.425,0.142-3.442,0.427c-1.012,0.284-2.08,0.729-3.202,1.334c0.162,3.344,1.629,5.717,4.401,7.122
		c2.865-0.158,5.433-0.478,7.697-0.958c2.27-0.481,4.549-1.175,6.844-2.083c0.285,0.25,0.504,0.641,0.656,1.174
		c0.148,0.532,0.225,1.026,0.225,1.468c0,0.889-0.21,1.694-0.625,2.414c-0.419,0.722-0.972,1.26-1.669,1.616
		c-0.693,0.357-2.445,0.825-5.255,1.412c-2.812,0.587-5.727,1.007-8.749,1.255C556.443,301.651,552.931,301.774,548.929,301.774"/>
	<path fill="#AEAEAF" d="M602.868,300.175c-1.78-0.162-3.057-0.324-3.83-0.494c-0.773-0.168-1.448-0.35-2.012-0.547
		c-1.355-0.481-2.681-1.189-3.992-2.122c-1.307-0.934-1.96-1.71-1.96-2.334c0-0.409,0.253-1.356,0.758-2.84
		c0.508-1.485,0.946-2.574,1.309-3.268c0.367-0.694,1.055-1.488,2.07-2.388c1.012-0.899,2.179-1.774,3.493-2.627
		c1.317-0.855,2.438-1.486,3.362-1.895l-0.267-2.188c1.544-1.208,2.698-2.063,3.442-2.561c0.745-0.498,1.493-0.968,2.238-1.413
		l-0.05,10.912v4.349l0.028,3.095c1.78,0.958,3.724,1.438,5.842,1.438c0.299,0,0.454,0.153,0.454,0.454v5.577
		c0,0.302-0.155,0.452-0.454,0.452c-2.208,0-3.989-0.348-5.352-1.053c-1.36-0.701-2.165-1.692-2.414-2.973l-0.48-2.029
		L602.868,300.175z M599.881,268.188c-0.909,1.333-2.023,2.614-3.336,3.842c-1.567-1.228-2.809-2.374-3.736-3.442l1.947-1.973
		l1.738-1.816C597.166,265.583,598.294,266.711,599.881,268.188 M594.972,291.024c1.136,0.785,2.237,1.334,3.308,1.656
		c1.065,0.317,2.076,0.55,3.027,0.692c0.948,0.143,2.032,0.242,3.241,0.293c-0.445-1.741-0.977-4.108-1.6-7.099
		C599.516,287.707,596.854,289.192,594.972,291.024 M607.189,267.387c-0.944,1.369-2.045,2.65-3.308,3.841
		c-1.512-1.191-2.766-2.329-3.763-3.414c1.336-1.229,2.553-2.5,3.655-3.815C604.431,264.693,605.57,265.822,607.189,267.387"/>
	<path fill="#AEAEAF" d="M786.979,294.492c0,0.908-0.258,2.181-0.771,3.814c-0.52,1.638-1.024,2.955-1.524,3.95
		c-2.185,0-4.435-0.252-6.736-0.76c-2.304-0.506-4.405-1.187-6.308-2.04c-0.229,0.532-0.452,0.969-0.666,1.307
		c-0.27,0.408-1.087,0.761-2.456,1.054c-1.369,0.294-2.837,0.439-4.402,0.439c-1.836,0-3.931-0.578-6.294-1.734
		c-0.749,0.338-1.701,0.634-2.858,0.881c-1.152,0.248-2.302,0.372-3.438,0.372c-0.305,0-0.458-0.15-0.458-0.452v-5.576
		c0-0.302,0.153-0.455,0.458-0.455c1.652,0,2.901-0.101,3.743-0.303c0.849-0.208,1.534-0.567,2.059-1.083
		c0.522-0.517,1.152-1.399,1.88-2.643l0.853-1.493c0.216-0.39,0.52-0.721,0.922-0.989c0.401-0.266,0.849-0.399,1.346-0.399
		c0.568,0,1.132,0.195,1.683,0.587l-1.124,2.909l-1.493,3.708c0.998,0.107,1.995,0.161,2.985,0.161c0.733,0,1.316-0.022,1.75-0.066
		c0.438-0.046,1.156-0.217,2.151-0.52c0.479-0.782,1.254-2.633,2.319-5.549l0.692-1.842c0.197-0.459,0.529-0.848,1.001-1.159
		c0.473-0.311,1.034-0.477,1.696-0.494c0.692,0,1.335,0.205,1.922,0.613c-0.128,0.284-0.248,0.59-0.363,0.92
		c-0.117,0.33-0.77,2.371-1.961,6.121c1.389,0.729,2.946,1.276,4.672,1.63c1.725,0.356,3.572,0.639,5.549,0.854l-1.469-2.989
		c-0.96-1.795-1.635-3.168-2.026-4.107c-0.391-0.945-0.588-1.7-0.588-2.268c0-0.873,0.485-1.847,1.452-2.921
		c0.972-1.075,2.14-1.953,3.508-2.629l1.444,7.391C786.691,291.666,786.979,293.584,786.979,294.492 M769.664,278.592
		c-1.066,1.478-2.179,2.738-3.337,3.791c-1.582-1.192-2.823-2.33-3.733-3.417l1.945-1.948l1.766-1.813
		C766.943,275.968,768.065,277.098,769.664,278.592 M772.974,273.839c-1.531,1.677-2.526,2.697-2.988,3.071
		c-1.513-1.227-2.612-2.259-3.308-3.095c1.496-1.353,2.542-2.374,3.146-3.066C770.627,271.69,771.677,272.723,772.974,273.839
		 M777.244,277.767c-0.943,1.366-2.05,2.648-3.311,3.84c-1.511-1.191-2.765-2.329-3.764-3.415c1.104-0.997,2.325-2.261,3.658-3.788
		C774.271,274.883,775.409,276.004,777.244,277.767"/>
	<path fill="#AEAEAF" d="M795.33,312.928c-0.624,0-1.622-0.408-3.001-1.227c-1.382-0.817-2.861-1.894-4.441-3.228l0.88-2.268
		c1.959,0.5,3.806,0.746,5.547,0.746c2.687,0,4.952-0.677,6.807-2.026c1.848-1.353,3.199-3.292,4.055-5.815
		c-0.555-1.138-1.175-2.25-1.87-3.337c-1.636-2.507-2.729-4.366-3.279-5.575c-0.553-1.211-0.829-2.258-0.829-3.147
		c0-1.05,0.424-2.096,1.271-3.134c0.842-1.041,1.941-1.9,3.295-2.576c0.333,1.387,0.75,2.784,1.239,4.189
		c0.487,1.404,0.959,2.792,1.414,4.161c0.453,1.371,0.842,2.704,1.161,4c0.316,1.302,0.478,2.527,0.478,3.685
		c0,2.863-0.545,5.493-1.639,7.883c-1.094,2.392-2.613,4.267-4.549,5.63C799.929,312.248,797.75,312.928,795.33,312.928"/>
	<path fill="#AEAEAF" d="M834.709,297.375c0,2.755-0.608,5.341-1.827,7.75s-2.883,4.311-4.988,5.71
		c-2.108,1.395-4.391,2.093-6.843,2.093c-0.695,0-1.839-0.454-3.428-1.36c-1.593-0.906-3.075-1.939-4.444-3.095l0.881-2.268
		c1.939,0.5,3.933,0.746,5.977,0.746c2.845,0,5.321-0.702,7.43-2.107c2.107-1.407,3.56-3.318,4.361-5.735l-0.053-0.426
		c-1.068,1.1-2.213,1.973-3.439,2.614c-1.229,0.638-2.473,0.958-3.736,0.958c-2.278,0-4.032-0.655-5.271-1.972
		c-1.236-1.316-1.853-3.167-1.853-5.549c0-2.064,0.378-4.066,1.134-6.003c0.752-1.939,1.754-3.5,2.998-4.68
		c1.246-1.185,2.536-1.777,3.871-1.777c1.547,0,3.023,0.725,4.431,2.173c1.402,1.45,2.554,3.404,3.45,5.858
		C834.26,292.758,834.709,295.116,834.709,297.375 M824.517,288.837c-1.153,0-2.13,0.394-2.919,1.187
		c-0.793,0.794-1.188,1.756-1.188,2.894c0,1.086,0.455,1.914,1.374,2.482c0.913,0.567,2.209,0.854,3.879,0.854
		c1.673,0,3.405-0.322,5.203-0.963c-0.336-0.994-0.851-2.035-1.534-3.121c-0.683-1.083-1.438-1.91-2.269-2.48
		C826.239,289.122,825.388,288.837,824.517,288.837"/>
	<path fill="#AEAEAF" d="M739.878,273.162v37.145H638.969v-37.145H739.878z M637.177,271.368v40.73h104.497v-40.73H637.177z"/>
	<path fill="#2E3191" d="M659.924,287.925c-0.422,0-0.769,0.06-1.034,0.178c-0.263,0.119-0.468,0.288-0.616,0.505
		c-0.149,0.215-0.25,0.473-0.298,0.77c-0.053,0.297-0.078,0.618-0.078,0.963c-0.615,0-1.083-0.103-1.403-0.313
		c-0.324-0.21-0.484-0.573-0.484-1.085c0-0.383,0.105-0.709,0.316-0.976c0.21-0.266,0.494-0.485,0.862-0.657
		c0.365-0.171,0.787-0.294,1.274-0.375c0.485-0.079,0.998-0.119,1.548-0.119c0.683,0,1.274,0.068,1.779,0.204
		c0.507,0.13,0.932,0.349,1.269,0.654c0.341,0.307,0.597,0.7,0.764,1.187c0.172,0.489,0.26,1.087,0.26,1.794v5.763
		c0,0.311,0.023,0.566,0.072,0.771c0.051,0.201,0.131,0.362,0.241,0.488c0.111,0.121,0.25,0.208,0.425,0.262
		c0.181,0.049,0.392,0.072,0.636,0.072h0.064v0.932h-3.003l-0.346-1.907h-0.185c-0.233,0.311-0.458,0.596-0.672,0.857
		c-0.22,0.258-0.458,0.483-0.717,0.67c-0.262,0.19-0.555,0.336-0.883,0.44c-0.331,0.105-0.726,0.158-1.192,0.158
		c-0.491,0-0.945-0.072-1.368-0.209c-0.424-0.144-0.79-0.361-1.097-0.654c-0.305-0.293-0.547-0.662-0.724-1.106
		c-0.168-0.444-0.257-0.969-0.257-1.58c0-1.175,0.419-2.053,1.257-2.623c0.841-0.57,2.107-0.882,3.808-0.933l1.844-0.066v-1.335
		c0-0.396-0.022-0.763-0.065-1.1c-0.046-0.336-0.136-0.625-0.283-0.866c-0.146-0.242-0.352-0.432-0.624-0.565
		C660.746,287.99,660.382,287.925,659.924,287.925 M657.237,295.724c0,0.696,0.145,1.216,0.439,1.558
		c0.292,0.343,0.745,0.515,1.36,0.515c0.449,0,0.856-0.072,1.22-0.217c0.363-0.144,0.677-0.35,0.934-0.618
		c0.257-0.265,0.451-0.59,0.593-0.975c0.135-0.384,0.204-0.813,0.204-1.28v-1.803l-1.419,0.066c-0.633,0.029-1.157,0.108-1.58,0.232
		c-0.423,0.128-0.766,0.304-1.024,0.533c-0.261,0.23-0.448,0.51-0.559,0.842C657.294,294.91,657.237,295.291,657.237,295.724"/>
	<path fill="#2E3191" d="M672.365,297.991c0.268,0,0.514-0.013,0.738-0.043c0.226-0.028,0.452-0.064,0.681-0.108v0.978
		c-0.094,0.042-0.214,0.086-0.37,0.126c-0.151,0.044-0.313,0.084-0.49,0.115c-0.178,0.032-0.364,0.057-0.559,0.077
		c-0.194,0.016-0.378,0.027-0.552,0.027c-0.564,0-1.049-0.06-1.454-0.179c-0.405-0.121-0.739-0.313-0.998-0.582
		c-0.258-0.266-0.455-0.622-0.579-1.063c-0.128-0.441-0.191-0.977-0.191-1.616v-7.42h-1.694v-0.89c0.268,0,0.566-0.054,0.889-0.162
		c0.319-0.109,0.603-0.291,0.85-0.542c0.253-0.276,0.456-0.602,0.613-0.981c0.153-0.381,0.292-0.857,0.405-1.427h1.02v2.732h2.903
		v1.269h-2.903v7.486c0,0.76,0.154,1.317,0.463,1.671C671.44,297.814,671.853,297.991,672.365,297.991"/>
	<path fill="#2E3191" d="M680.672,299.164c-0.801,0-1.521-0.135-2.166-0.408c-0.636-0.27-1.177-0.666-1.618-1.186
		c-0.443-0.521-0.78-1.158-1.014-1.915c-0.236-0.756-0.353-1.612-0.353-2.577c0-2.073,0.423-3.638,1.275-4.686
		c0.854-1.05,2.073-1.574,3.646-1.574c0.717,0,1.358,0.114,1.933,0.338c0.568,0.222,1.054,0.557,1.454,1.002
		c0.395,0.444,0.699,0.998,0.916,1.659c0.211,0.662,0.319,1.43,0.319,2.305v1.02h-7.397c0.016,0.811,0.095,1.506,0.244,2.09
		c0.147,0.582,0.361,1.063,0.639,1.437c0.28,0.376,0.621,0.653,1.027,0.828c0.401,0.179,0.868,0.266,1.396,0.266
		c0.383,0,0.741-0.044,1.072-0.129c0.327-0.085,0.624-0.202,0.893-0.348c0.268-0.142,0.503-0.308,0.708-0.492
		c0.211-0.183,0.373-0.378,0.506-0.58c0.1,0.044,0.199,0.132,0.289,0.27c0.088,0.138,0.133,0.301,0.133,0.488
		c0,0.224-0.081,0.465-0.238,0.724c-0.159,0.252-0.4,0.49-0.725,0.707c-0.326,0.217-0.731,0.399-1.222,0.541
		C681.901,299.091,681.329,299.164,680.672,299.164 M680.401,288.013c-0.823,0-1.459,0.332-1.904,1.002
		c-0.446,0.67-0.705,1.647-0.784,2.936h5.107c0-0.587-0.046-1.123-0.131-1.609c-0.086-0.483-0.228-0.899-0.413-1.247
		c-0.188-0.344-0.435-0.613-0.744-0.802C681.227,288.104,680.85,288.013,680.401,288.013"/>
	<path fill="#2E3191" d="M686.756,298.013c0.252,0,0.489-0.016,0.711-0.052c0.22-0.037,0.411-0.111,0.571-0.221
		c0.164-0.115,0.297-0.276,0.39-0.487c0.102-0.208,0.151-0.487,0.151-0.833v-11.909c0-0.328-0.05-0.59-0.151-0.788
		c-0.093-0.199-0.229-0.352-0.393-0.459c-0.168-0.109-0.357-0.181-0.579-0.213c-0.225-0.034-0.455-0.047-0.7-0.047h-0.283v-0.934
		h4.195v14.352c0,0.346,0.05,0.625,0.144,0.833c0.094,0.211,0.223,0.372,0.391,0.487c0.167,0.109,0.358,0.184,0.58,0.221
		c0.221,0.036,0.456,0.052,0.708,0.052h0.286v0.932h-6.304v-0.932H686.756z"/>
	<path fill="#2E3191" d="M693.87,298.013c0.245,0,0.479-0.016,0.699-0.049c0.221-0.032,0.415-0.098,0.581-0.2
		c0.163-0.101,0.299-0.251,0.395-0.45c0.095-0.199,0.147-0.459,0.147-0.786v-7.042c0-0.324-0.053-0.588-0.147-0.784
		c-0.096-0.201-0.231-0.354-0.395-0.464c-0.166-0.109-0.36-0.18-0.581-0.214c-0.221-0.035-0.454-0.055-0.699-0.055h-0.063v-0.933
		h3.965v9.384c0,0.346,0.052,0.625,0.146,0.833c0.101,0.211,0.228,0.372,0.392,0.484c0.164,0.112,0.357,0.187,0.583,0.223
		c0.225,0.036,0.458,0.052,0.704,0.052h0.294v0.932h-6.313v-0.932H693.87z M695.376,283.436c0-0.262,0.033-0.477,0.099-0.65
		c0.064-0.173,0.156-0.316,0.268-0.423c0.119-0.11,0.255-0.185,0.404-0.228c0.152-0.044,0.32-0.066,0.502-0.066
		c0.171,0,0.331,0.022,0.484,0.066c0.151,0.043,0.285,0.117,0.396,0.228c0.113,0.107,0.202,0.25,0.272,0.423
		c0.071,0.173,0.103,0.388,0.103,0.65c0,0.259-0.031,0.476-0.103,0.649c-0.07,0.175-0.159,0.316-0.272,0.423
		c-0.111,0.11-0.245,0.186-0.396,0.233c-0.153,0.047-0.313,0.071-0.484,0.071c-0.182,0-0.35-0.024-0.502-0.071
		c-0.149-0.047-0.285-0.124-0.404-0.233c-0.111-0.107-0.203-0.249-0.268-0.423C695.409,283.912,695.376,283.695,695.376,283.436"/>
	<path fill="#2E3191" d="M706.546,299.164c-0.798,0-1.522-0.135-2.163-0.408c-0.639-0.27-1.182-0.666-1.618-1.186
		c-0.443-0.521-0.78-1.158-1.016-1.915c-0.236-0.756-0.353-1.612-0.353-2.577c0-2.073,0.427-3.638,1.274-4.686
		c0.856-1.05,2.07-1.574,3.649-1.574c0.714,0,1.358,0.114,1.929,0.338c0.57,0.222,1.058,0.557,1.455,1.002
		c0.397,0.444,0.702,0.998,0.914,1.659c0.213,0.662,0.319,1.43,0.319,2.305v1.02h-7.396c0.016,0.811,0.097,1.506,0.246,2.09
		c0.148,0.582,0.359,1.063,0.64,1.437c0.276,0.376,0.621,0.653,1.024,0.828c0.404,0.179,0.868,0.266,1.401,0.266
		c0.38,0,0.736-0.044,1.066-0.129c0.329-0.085,0.627-0.202,0.893-0.348c0.268-0.142,0.506-0.308,0.711-0.492
		c0.208-0.183,0.373-0.378,0.506-0.58c0.101,0.044,0.196,0.132,0.286,0.27c0.091,0.138,0.133,0.301,0.133,0.488
		c0,0.224-0.078,0.465-0.236,0.724c-0.161,0.252-0.399,0.49-0.727,0.707c-0.325,0.217-0.732,0.399-1.22,0.541
		C707.778,299.091,707.206,299.164,706.546,299.164 M706.275,288.013c-0.823,0-1.457,0.332-1.904,1.002
		c-0.445,0.67-0.704,1.647-0.784,2.936h5.107c0-0.587-0.044-1.123-0.129-1.609c-0.088-0.483-0.228-0.899-0.413-1.247
		c-0.19-0.344-0.438-0.613-0.744-0.802C707.101,288.104,706.724,288.013,706.275,288.013"/>
	<path fill="#2E3191" d="M719.203,298.944h-6.412v-0.932h0.064c0.257,0,0.491-0.016,0.71-0.052c0.225-0.037,0.417-0.111,0.577-0.221
		c0.164-0.115,0.292-0.276,0.392-0.487c0.097-0.208,0.147-0.487,0.147-0.833v-6.935c0-0.324-0.051-0.588-0.147-0.784
		c-0.1-0.201-0.229-0.354-0.395-0.464c-0.166-0.109-0.362-0.18-0.58-0.214c-0.225-0.037-0.457-0.055-0.704-0.055h-0.064v-0.933
		h3.418l0.421,2.203h0.109c0.148-0.333,0.296-0.646,0.446-0.939s0.338-0.549,0.561-0.769c0.22-0.221,0.489-0.394,0.816-0.52
		c0.325-0.128,0.735-0.192,1.224-0.192c0.812,0,1.413,0.141,1.808,0.423c0.392,0.283,0.589,0.68,0.589,1.194
		c0,0.23-0.037,0.444-0.111,0.639c-0.077,0.196-0.197,0.364-0.364,0.503c-0.164,0.143-0.378,0.251-0.641,0.328
		c-0.262,0.075-0.581,0.114-0.952,0.114c0-0.615-0.09-1.058-0.262-1.328c-0.174-0.273-0.477-0.408-0.91-0.408
		c-0.275,0-0.521,0.078-0.738,0.233s-0.407,0.361-0.568,0.619c-0.162,0.257-0.301,0.551-0.414,0.884
		c-0.111,0.332-0.202,0.673-0.271,1.024c-0.069,0.351-0.117,0.701-0.145,1.047c-0.028,0.346-0.045,0.664-0.045,0.944v3.495
		c0,0.326,0.051,0.587,0.146,0.786c0.101,0.198,0.23,0.349,0.396,0.45c0.169,0.103,0.362,0.168,0.582,0.2
		c0.22,0.033,0.455,0.049,0.699,0.049h0.619V298.944z"/>
</g>
<path fill="#2E3191" d="M443.411,535.593c0-9.857-0.618-20.389-1.858-31.593c-1.247-11.214-1.866-18.846-1.866-22.906
	c0-3.033,2.324-9.583,6.976-19.654c0.327-0.649,2.876-1.518,7.642-2.603c4.759-1.081,10.519-2.058,17.256-2.926
	c6.743-0.864,12.28-1.292,16.607-1.292l-3.087-3.5c-1.945-2.439-3.75-4.708-5.401-6.817c-1.656-2.118-3.273-3.89-4.875-5.324
	c-1.593-1.432-3.339-2.151-5.229-2.151c-2.549,0-5.046,0.944-7.476,2.842c-2.442,1.899-5.017,4.714-7.721,8.45l-6.82-3.491
	c3.192-8.236,7.053-14.821,11.574-19.778c4.519-4.953,9.054-7.437,13.601-7.437c2.662,0,5.217,0.988,7.679,2.968
	c2.464,1.98,5.351,5.351,8.655,10.109c3.571,5.252,6.937,9.685,10.103,13.28c3.171,3.6,6.465,6.592,9.87,8.975l-7.632,19.822
	c-9.155,0-18.983,0.663-29.485,1.982c-10.499,1.335-17.708,2.694-21.603,4.108l9.988,47.682
	C454.517,530.502,448.887,533.591,443.411,535.593z"/>
<path fill="#2E3191" d="M599.714,479.634h-10.243c-2.864,10.338-7.942,18.587-15.223,24.732c-7.281,6.146-15.499,9.211-24.651,9.211
	c-2.112,0-5.598-1.379-10.435-4.141c-4.846-2.763-9.353-5.902-13.521-9.422l2.675-6.903c5.907,1.516,11.97,2.271,18.193,2.271
	c7.044,0,13.391-1.444,19.049-4.337c5.652-2.903,10.028-6.786,13.116-11.659c-9.532-0.541-16.423-1.26-20.677-2.15
	c-4.248-0.892-7.838-2.341-10.759-4.345c-2.926-2.006-5.044-4.493-6.373-7.473c-1.326-2.976-1.99-6.581-1.99-10.799
	c0-6.069,1.169-12.071,3.491-17.996c2.33-5.929,5.383-10.72,9.178-14.378c3.793-3.65,7.633-5.48,11.531-5.48
	c6.603,0,12.598,4.175,17.949,12.509c5.367,8.336,8.641,18.546,9.826,30.618h8.863c0.916,0,1.374,0.458,1.374,1.383v16.979
	C601.088,479.168,600.63,479.634,599.714,479.634z M559.346,436.584c-3.252,0-6.013,1.134-8.288,3.41
	c-2.27,2.276-3.406,4.766-3.406,7.472c0,6.122,5.464,9.91,16.4,11.371c2.383,0.327,7.693,0.654,15.925,0.975
	c-2.332-7.525-5.279-13.28-8.856-17.264C567.55,438.573,563.622,436.584,559.346,436.584z"/>
<path fill="#2E3191" d="M598.328,479.634c-0.916,0-1.38-0.466-1.38-1.38v-16.979c0-0.925,0.464-1.383,1.38-1.383h229.289
	c0.979,0,1.46,0.458,1.46,1.383v16.979c0,0.914-0.48,1.38-1.46,1.38H598.328z"/>
<path fill="#2E3191" d="M826.23,479.634c-0.912,0-1.373-0.466-1.373-1.38v-16.979c0-0.925,0.461-1.383,1.373-1.383
	c8.717,0,16.967-0.431,24.74-1.297c7.767-0.863,13.193-2.002,16.277-3.414c-1.455-3.245-2.923-6.188-4.375-8.808
	c-1.477-2.629-2.784-5.011-3.946-7.148c-1.169-2.137-2.11-4.074-2.847-5.807c-0.724-1.735-1.093-3.332-1.093-4.794
	c0-2.653,1.476-5.621,4.431-8.895c2.953-3.271,6.504-5.94,10.676-7.997l2.114,10.878c1.561,7.799,2.76,13.815,3.575,18.035
	c0.809,4.22,1.214,7.473,1.214,9.743c0,2.547-0.641,5.661-1.912,9.345c-1.266,3.679-2.791,7.257-4.583,10.72
	c-4.55,2.765-10.996,4.978-19.329,6.656C842.832,478.789,834.52,479.634,826.23,479.634z M854.573,503.51
	c-2.754,4.063-6.135,7.958-10.148,11.694c-5.352-4.439-9.155-7.959-11.368-10.558l5.927-5.931l5.286-5.522
	C845.729,494.874,849.166,498.311,854.573,503.51z M876.837,501.072c-2.225,3.465-5.55,7.363-9.985,11.697
	c-4.938-3.844-8.783-7.337-11.539-10.477c3.521-3.03,7.255-6.911,11.214-11.616C867.174,491.379,870.61,494.846,876.837,501.072z"/>
<rect x="645.438" y="400.569" fill="#FFFFFF" stroke="#F05A28" stroke-width="5.0154" stroke-miterlimit="10" width="122.247" height="117.05"/>
<rect x="665.365" y="390.563" fill="#FFFFFF" stroke="#F05A28" stroke-width="5.4988" stroke-miterlimit="10" width="120.448" height="115.111"/>
<g>
	<g>
		<path fill="#F05A28" d="M710.268,473.471v-3.509h5.588c0.953,0,1.844-0.067,2.674-0.203c0.828-0.136,1.549-0.415,2.162-0.837
			c0.611-0.421,1.102-1.026,1.469-1.815c0.365-0.788,0.549-1.836,0.549-3.141V420.07c-1.061,1.306-2.066,2.488-3.018,3.549
			c-0.953,1.061-1.863,1.973-2.734,2.733c-0.869,0.762-1.719,1.354-2.549,1.774c-0.83,0.422-1.652,0.633-2.469,0.633
			c-1.223,0-2.23-0.414-3.018-1.244c-0.789-0.829-1.184-1.91-1.184-3.243c0.842-0.218,1.693-0.482,2.549-0.796
			c0.857-0.313,1.768-0.72,2.734-1.224c0.965-0.503,2.012-1.115,3.141-1.836c1.129-0.72,2.387-1.584,3.773-2.591l5.875-4.324h5.344
			v50.464c0,1.305,0.176,2.353,0.531,3.141c0.352,0.789,0.842,1.395,1.469,1.815c0.625,0.422,1.352,0.701,2.182,0.837
			s1.721,0.203,2.672,0.203h4.08v3.509H710.268z"/>
	</g>
</g>
</svg>
