<?xml version="1.0" encoding="utf-8"?>
<!-- Generator: Adobe Illustrator 16.0.0, SVG Export Plug-In . SVG Version: 6.00 Build 0)  -->
<!DOCTYPE svg PUBLIC "-//W3C//DTD SVG 1.1//EN" "http://www.w3.org/Graphics/SVG/1.1/DTD/svg11.dtd">
<svg version="1.1" id="Layer_1" xmlns="http://www.w3.org/2000/svg" xmlns:xlink="http://www.w3.org/1999/xlink" x="0px" y="0px"
	 width="283.464px" height="283.464px" viewBox="0 0 283.464 283.464" enable-background="new 0 0 283.464 283.464"
	 xml:space="preserve">
<path d="M92.527,148.362c-0.161,0-0.242-0.08-0.242-0.242v-2.986c0-0.162,0.081-0.244,0.242-0.244h66.496
	c0.172,0,0.258,0.082,0.258,0.244v2.986c0,0.162-0.086,0.242-0.258,0.242H92.527z"/>
<path d="M87.184,147.504c-0.954-0.086-1.637-0.174-2.051-0.264s-0.776-0.188-1.079-0.293c-0.725-0.258-1.435-0.637-2.137-1.137
	c-0.7-0.5-1.05-0.916-1.05-1.25c0-0.221,0.136-0.727,0.406-1.522c0.272-0.795,0.505-1.379,0.701-1.75
	c0.196-0.372,0.564-0.798,1.108-1.279c0.542-0.481,1.167-0.95,1.871-1.407c0.705-0.458,1.306-0.796,1.801-1.015l-0.145-1.172
	c0.828-0.647,1.445-1.105,1.845-1.372c0.398-0.267,0.8-0.519,1.199-0.757l-0.027,5.845v2.329l0.015,1.657
	c0.953,0.514,1.995,0.771,3.129,0.771c0.161,0,0.243,0.082,0.243,0.242v2.988c0,0.162-0.082,0.242-0.243,0.242
	c-1.183,0-2.136-0.188-2.866-0.564c-0.728-0.375-1.159-0.906-1.294-1.592l-0.256-1.088L87.184,147.504z M85.584,130.372
	c-0.486,0.714-1.083,1.399-1.787,2.058c-0.839-0.658-1.505-1.271-2.001-1.844l1.043-1.057l0.93-0.973
	C84.13,128.977,84.733,129.581,85.584,130.372 M82.954,142.604c0.608,0.42,1.198,0.715,1.772,0.887
	c0.57,0.17,1.111,0.295,1.621,0.371c0.507,0.076,1.087,0.129,1.736,0.156c-0.239-0.933-0.524-2.201-0.857-3.802
	C85.388,140.826,83.963,141.622,82.954,142.604 M89.498,129.943c-0.505,0.732-1.097,1.419-1.771,2.057
	c-0.811-0.638-1.481-1.247-2.016-1.828c0.716-0.658,1.367-1.339,1.958-2.044C88.021,128.5,88.631,129.105,89.498,129.943"/>
<path d="M177.857,144.461c0,0.486-0.139,1.168-0.414,2.043c-0.277,0.877-0.549,1.582-0.814,2.115c-1.172,0-2.377-0.135-3.609-0.408
	c-1.232-0.271-2.359-0.635-3.379-1.092c-0.123,0.285-0.242,0.52-0.355,0.699c-0.145,0.219-0.582,0.408-1.316,0.564
	c-0.732,0.158-1.52,0.236-2.357,0.236c-0.982,0-2.105-0.311-3.371-0.93c-0.402,0.182-0.912,0.34-1.531,0.473
	c-0.617,0.133-1.232,0.199-1.842,0.199c-0.162,0-0.244-0.08-0.244-0.242v-2.986c0-0.162,0.082-0.244,0.244-0.244
	c0.885,0,1.555-0.055,2.006-0.162c0.453-0.111,0.82-0.305,1.102-0.58c0.281-0.277,0.617-0.75,1.008-1.416l0.457-0.8
	c0.115-0.209,0.277-0.386,0.494-0.529c0.213-0.143,0.455-0.214,0.721-0.214c0.303,0,0.605,0.104,0.9,0.314l-0.602,1.558
	l-0.799,1.987c0.533,0.057,1.066,0.086,1.598,0.086c0.393,0,0.705-0.012,0.938-0.037c0.234-0.023,0.619-0.115,1.152-0.277
	c0.256-0.42,0.67-1.41,1.242-2.973l0.371-0.986c0.105-0.246,0.283-0.454,0.535-0.621c0.254-0.166,0.555-0.255,0.908-0.264
	c0.371,0,0.715,0.109,1.029,0.328c-0.066,0.152-0.133,0.316-0.193,0.493c-0.063,0.177-0.412,1.27-1.051,3.279
	c0.744,0.391,1.578,0.684,2.502,0.873s1.914,0.342,2.973,0.457l-0.787-1.602c-0.514-0.961-0.875-1.697-1.086-2.2
	c-0.209-0.506-0.314-0.91-0.314-1.215c0-0.467,0.26-0.989,0.777-1.564c0.521-0.576,1.146-1.046,1.881-1.408l0.771,3.959
	C177.703,142.947,177.857,143.975,177.857,144.461 M168.583,135.944c-0.572,0.791-1.168,1.467-1.787,2.03
	c-0.848-0.639-1.514-1.248-2-1.83l1.041-1.043l0.945-0.972C167.125,134.539,167.726,135.145,168.583,135.944 M170.355,133.399
	c-0.82,0.897-1.354,1.444-1.602,1.645c-0.809-0.657-1.398-1.21-1.77-1.657c0.801-0.725,1.361-1.271,1.684-1.643
	C169.099,132.248,169.66,132.801,170.355,133.399 M172.642,135.502c-0.506,0.732-1.098,1.419-1.773,2.058
	c-0.809-0.639-1.48-1.248-2.014-1.829c0.59-0.534,1.244-1.211,1.959-2.029C171.05,133.958,171.66,134.559,172.642,135.502"/>
<path d="M182.33,154.334c-0.334,0-0.869-0.219-1.607-0.656c-0.74-0.438-1.531-1.016-2.379-1.729l0.471-1.215
	c1.049,0.268,2.039,0.398,2.973,0.398c1.438,0,2.652-0.361,3.645-1.084c0.99-0.725,1.713-1.764,2.172-3.115
	c-0.297-0.609-0.629-1.205-1.002-1.787c-0.875-1.344-1.461-2.338-1.756-2.987s-0.445-1.209-0.445-1.686
	c0-0.563,0.229-1.122,0.682-1.679c0.451-0.558,1.039-1.018,1.764-1.38c0.18,0.743,0.402,1.491,0.664,2.244
	c0.262,0.752,0.514,1.495,0.758,2.229c0.244,0.734,0.451,1.448,0.621,2.143c0.17,0.697,0.256,1.354,0.256,1.973
	c0,1.533-0.291,2.941-0.877,4.223s-1.398,2.285-2.438,3.016C184.792,153.971,183.625,154.334,182.33,154.334"/>
<path d="M203.421,146.004c0,1.477-0.326,2.861-0.98,4.152c-0.652,1.289-1.543,2.309-2.67,3.057
	c-1.129,0.748-2.352,1.121-3.666,1.121c-0.371,0-0.984-0.242-1.836-0.729c-0.854-0.484-1.646-1.037-2.379-1.656l0.471-1.215
	c1.039,0.268,2.107,0.398,3.201,0.398c1.523,0,2.85-0.375,3.98-1.127c1.129-0.754,1.906-1.777,2.336-3.072l-0.029-0.229
	c-0.572,0.59-1.186,1.057-1.842,1.4c-0.658,0.342-1.324,0.512-2.002,0.512c-1.219,0-2.16-0.35-2.822-1.055s-0.992-1.697-0.992-2.973
	c0-1.105,0.203-2.178,0.607-3.215c0.402-1.039,0.939-1.875,1.605-2.507c0.666-0.635,1.359-0.952,2.072-0.952
	c0.83,0,1.621,0.389,2.373,1.164c0.752,0.777,1.369,1.823,1.85,3.138C203.181,143.532,203.421,144.795,203.421,146.004
	 M197.962,141.432c-0.619,0-1.141,0.211-1.564,0.636c-0.424,0.426-0.635,0.94-0.635,1.55c0,0.582,0.244,1.025,0.734,1.33
	c0.49,0.303,1.184,0.457,2.078,0.457c0.896,0,1.824-0.172,2.787-0.516c-0.18-0.533-0.455-1.09-0.822-1.672
	c-0.365-0.581-0.77-1.023-1.215-1.329C198.884,141.584,198.429,141.432,197.962,141.432"/>
<path d="M199.5,132.408l0.025,0.314c0,0.506-0.221,0.848-0.67,1.029c-0.902,0.381-1.674,0.672-2.314,0.871l-0.756,0.258l0.143-1.243
	C197.347,133.199,198.537,132.789,199.5,132.408"/>
<path d="M170.083,126.055l0.027,0.314c0,0.504-0.221,0.848-0.67,1.028c-0.904,0.381-1.676,0.672-2.314,0.872l-0.758,0.256
	l0.143-1.241C167.931,126.845,169.121,126.436,170.083,126.055"/>
<rect x="96.61" y="136.785" fill="#FFFFFF" width="55.009" height="20.854"/>
<path d="M151.141,137.267v19.892h-54.05v-19.892H151.141z M96.131,136.307v21.811H152.1v-21.811H96.131z"/>
<rect x="100.372" y="132.556" fill="#FFFFFF" width="55.007" height="20.855"/>
<path d="M154.899,133.036v19.896h-54.048v-19.896H154.899z M99.892,132.075v21.816h55.968v-21.816H99.892z"/>
<path d="M112.076,140.943c-0.229,0-0.414,0.032-0.556,0.096c-0.141,0.063-0.251,0.154-0.329,0.271
	c-0.08,0.115-0.135,0.253-0.16,0.412c-0.028,0.159-0.041,0.331-0.041,0.517c-0.33,0-0.58-0.056-0.752-0.168
	c-0.174-0.112-0.26-0.307-0.26-0.581c0-0.205,0.057-0.38,0.17-0.522c0.111-0.143,0.264-0.26,0.461-0.352
	c0.195-0.092,0.422-0.158,0.683-0.201c0.26-0.042,0.534-0.063,0.829-0.063c0.367,0,0.683,0.036,0.953,0.108
	c0.271,0.07,0.5,0.188,0.68,0.351c0.183,0.164,0.32,0.375,0.41,0.636c0.091,0.262,0.137,0.582,0.137,0.961v3.086
	c0,0.168,0.014,0.305,0.04,0.414c0.026,0.107,0.069,0.193,0.129,0.26s0.134,0.113,0.228,0.141c0.097,0.027,0.209,0.039,0.34,0.039
	h0.035v0.5h-1.608l-0.185-1.021h-0.1c-0.125,0.166-0.244,0.318-0.359,0.459c-0.117,0.139-0.246,0.258-0.384,0.359
	c-0.141,0.102-0.298,0.18-0.474,0.234c-0.176,0.057-0.389,0.086-0.637,0.086c-0.264,0-0.508-0.039-0.734-0.113
	c-0.227-0.076-0.422-0.193-0.587-0.35c-0.164-0.156-0.293-0.354-0.386-0.592c-0.092-0.238-0.139-0.52-0.139-0.846
	c0-0.631,0.223-1.1,0.674-1.406c0.449-0.305,1.127-0.473,2.039-0.5l0.986-0.035v-0.715c0-0.212-0.012-0.408-0.035-0.589
	c-0.023-0.18-0.072-0.335-0.15-0.464c-0.078-0.13-0.189-0.231-0.334-0.303C112.515,140.979,112.32,140.943,112.076,140.943
	 M110.636,145.122c0,0.371,0.077,0.65,0.235,0.834c0.156,0.184,0.398,0.275,0.729,0.275c0.24,0,0.458-0.039,0.653-0.117
	c0.194-0.076,0.362-0.188,0.5-0.33s0.241-0.316,0.317-0.523c0.072-0.205,0.109-0.434,0.109-0.686v-0.965l-0.761,0.035
	c-0.337,0.016-0.619,0.059-0.845,0.125c-0.228,0.068-0.41,0.162-0.549,0.285c-0.141,0.123-0.24,0.273-0.3,0.451
	S110.636,144.889,110.636,145.122"/>
<path d="M118.738,146.334c0.145,0,0.275-0.006,0.396-0.021c0.119-0.016,0.242-0.035,0.364-0.059v0.523
	c-0.051,0.021-0.116,0.045-0.198,0.068c-0.08,0.023-0.168,0.045-0.264,0.061c-0.095,0.018-0.195,0.031-0.299,0.041
	s-0.203,0.016-0.296,0.016c-0.302,0-0.562-0.033-0.778-0.096c-0.217-0.064-0.396-0.168-0.535-0.313
	c-0.139-0.143-0.242-0.332-0.31-0.568c-0.069-0.236-0.103-0.523-0.103-0.865v-3.975h-0.906v-0.477c0.143,0,0.302-0.029,0.475-0.087
	c0.171-0.059,0.323-0.155,0.455-0.29c0.137-0.147,0.245-0.322,0.328-0.525c0.083-0.204,0.156-0.459,0.218-0.764h0.546v1.463h1.557
	v0.68h-1.557v4.01c0,0.406,0.082,0.705,0.247,0.895C118.243,146.241,118.465,146.334,118.738,146.334"/>
<path d="M123.188,146.963c-0.43,0-0.815-0.072-1.16-0.219c-0.34-0.145-0.631-0.357-0.866-0.635
	c-0.237-0.279-0.419-0.621-0.544-1.025c-0.126-0.406-0.188-0.865-0.188-1.381c0-1.111,0.227-1.949,0.684-2.51
	c0.457-0.563,1.109-0.843,1.951-0.843c0.385,0,0.729,0.061,1.035,0.181c0.305,0.119,0.565,0.299,0.778,0.537
	s0.376,0.534,0.491,0.889c0.113,0.354,0.171,0.766,0.171,1.235v0.547h-3.961c0.008,0.434,0.051,0.807,0.13,1.119
	c0.079,0.311,0.193,0.568,0.343,0.77s0.332,0.35,0.55,0.443c0.215,0.096,0.465,0.143,0.748,0.143c0.205,0,0.396-0.023,0.573-0.07
	c0.177-0.045,0.335-0.107,0.478-0.186c0.145-0.076,0.271-0.166,0.381-0.264c0.111-0.098,0.199-0.203,0.271-0.311
	c0.054,0.023,0.105,0.07,0.154,0.145c0.048,0.074,0.071,0.16,0.071,0.262c0,0.119-0.043,0.248-0.127,0.387
	c-0.086,0.137-0.215,0.264-0.39,0.379c-0.174,0.117-0.391,0.215-0.653,0.291C123.848,146.924,123.54,146.963,123.188,146.963
	 M123.043,140.99c-0.441,0-0.782,0.178-1.02,0.537c-0.239,0.358-0.379,0.882-0.42,1.573h2.734c0-0.315-0.023-0.602-0.07-0.862
	c-0.045-0.26-0.121-0.482-0.221-0.668c-0.102-0.185-0.232-0.328-0.398-0.43C123.484,141.039,123.282,140.99,123.043,140.99"/>
<path d="M126.446,146.346c0.135,0,0.263-0.008,0.381-0.027c0.117-0.02,0.22-0.061,0.306-0.119c0.088-0.061,0.158-0.146,0.209-0.26
	c0.054-0.111,0.08-0.262,0.08-0.447v-6.378c0-0.175-0.026-0.315-0.08-0.422c-0.051-0.106-0.123-0.188-0.211-0.246
	c-0.088-0.059-0.191-0.097-0.31-0.114c-0.12-0.018-0.244-0.025-0.375-0.025h-0.151v-0.5h2.248v7.686
	c0,0.186,0.025,0.336,0.075,0.447c0.05,0.113,0.12,0.199,0.209,0.26c0.091,0.059,0.192,0.1,0.312,0.119
	c0.117,0.02,0.244,0.027,0.379,0.027h0.152v0.5h-3.375v-0.5H126.446z"/>
<path d="M130.256,146.346c0.132,0,0.257-0.008,0.375-0.025c0.119-0.018,0.222-0.053,0.311-0.107s0.16-0.135,0.213-0.242
	c0.051-0.105,0.078-0.246,0.078-0.42v-3.772c0-0.174-0.027-0.314-0.078-0.42c-0.053-0.107-0.124-0.189-0.213-0.248
	s-0.191-0.097-0.311-0.115c-0.118-0.019-0.243-0.029-0.375-0.029h-0.033v-0.5h2.124v5.026c0,0.186,0.026,0.336,0.079,0.447
	c0.053,0.113,0.121,0.199,0.209,0.26c0.088,0.059,0.191,0.1,0.312,0.119s0.246,0.027,0.377,0.027h0.157v0.5H130.1v-0.5H130.256z
	 M131.063,138.539c0-0.141,0.019-0.256,0.053-0.349s0.083-0.169,0.144-0.227c0.063-0.059,0.136-0.099,0.216-0.122
	c0.082-0.023,0.171-0.035,0.269-0.035c0.092,0,0.18,0.012,0.26,0.035c0.082,0.023,0.153,0.063,0.213,0.122
	c0.06,0.058,0.107,0.134,0.146,0.227c0.037,0.093,0.056,0.208,0.056,0.349c0,0.139-0.019,0.255-0.056,0.348
	c-0.038,0.094-0.086,0.169-0.146,0.227c-0.06,0.059-0.131,0.1-0.213,0.125c-0.08,0.025-0.168,0.038-0.26,0.038
	c-0.098,0-0.187-0.013-0.269-0.038c-0.08-0.025-0.152-0.066-0.216-0.125c-0.061-0.058-0.109-0.133-0.144-0.227
	C131.082,138.794,131.063,138.678,131.063,138.539"/>
<path d="M137.047,146.963c-0.43,0-0.817-0.072-1.16-0.219c-0.342-0.145-0.633-0.357-0.867-0.635
	c-0.236-0.279-0.418-0.621-0.543-1.025c-0.127-0.406-0.189-0.865-0.189-1.381c0-1.111,0.229-1.949,0.684-2.51
	c0.459-0.563,1.109-0.843,1.953-0.843c0.384,0,0.729,0.061,1.033,0.181c0.307,0.119,0.567,0.299,0.78,0.537
	c0.212,0.238,0.376,0.534,0.49,0.889c0.112,0.354,0.171,0.766,0.171,1.235v0.547h-3.962c0.009,0.434,0.052,0.807,0.132,1.119
	c0.079,0.311,0.193,0.568,0.342,0.77s0.333,0.35,0.551,0.443c0.215,0.096,0.465,0.143,0.75,0.143c0.203,0,0.394-0.023,0.57-0.07
	c0.176-0.045,0.336-0.107,0.479-0.186c0.144-0.076,0.271-0.166,0.381-0.264c0.111-0.098,0.199-0.203,0.271-0.311
	c0.054,0.023,0.105,0.07,0.153,0.145c0.049,0.074,0.072,0.16,0.072,0.262c0,0.119-0.043,0.248-0.127,0.387
	c-0.086,0.137-0.215,0.264-0.39,0.379c-0.174,0.117-0.393,0.215-0.653,0.291C137.707,146.924,137.398,146.963,137.047,146.963
	 M136.9,140.99c-0.439,0-0.78,0.178-1.02,0.537c-0.238,0.358-0.377,0.882-0.42,1.573h2.735c0-0.315-0.022-0.602-0.069-0.862
	s-0.121-0.482-0.221-0.668c-0.102-0.185-0.234-0.328-0.398-0.43C137.342,141.039,137.141,140.99,136.9,140.99"/>
<path d="M143.825,146.846h-3.434v-0.5h0.035c0.136,0,0.263-0.008,0.381-0.027c0.119-0.02,0.222-0.061,0.309-0.119
	c0.087-0.061,0.156-0.146,0.209-0.26c0.053-0.111,0.078-0.262,0.078-0.447v-3.713c0-0.174-0.025-0.314-0.078-0.42
	c-0.053-0.107-0.123-0.189-0.212-0.248s-0.192-0.097-0.31-0.115c-0.121-0.02-0.244-0.029-0.377-0.029h-0.035v-0.5h1.83l0.227,1.18
	h0.059c0.078-0.178,0.157-0.346,0.238-0.503c0.081-0.157,0.182-0.294,0.301-0.412c0.117-0.118,0.262-0.211,0.436-0.278
	c0.176-0.068,0.395-0.103,0.656-0.103c0.436,0,0.758,0.075,0.969,0.227c0.209,0.151,0.316,0.364,0.316,0.64
	c0,0.123-0.021,0.237-0.061,0.342c-0.041,0.105-0.105,0.195-0.195,0.27c-0.09,0.076-0.203,0.135-0.344,0.176
	c-0.139,0.04-0.309,0.061-0.51,0.061c0-0.329-0.047-0.566-0.139-0.711c-0.094-0.146-0.256-0.219-0.488-0.219
	c-0.148,0-0.279,0.042-0.396,0.125c-0.115,0.083-0.217,0.193-0.305,0.331c-0.086,0.138-0.16,0.295-0.221,0.474
	c-0.06,0.178-0.107,0.361-0.145,0.549s-0.063,0.375-0.079,0.561c-0.015,0.186-0.022,0.355-0.022,0.506v1.871
	c0,0.174,0.027,0.314,0.078,0.42c0.053,0.107,0.123,0.188,0.213,0.242c0.088,0.055,0.193,0.09,0.309,0.107
	c0.119,0.018,0.244,0.025,0.375,0.025h0.332V146.846z"/>
</svg>
